# File created by Blade
# Date/Time:  Tue Apr 07 20:18:06 2015
#---------------------------------------------------------
:version 1.10
:name HOM
:units
  mass 1.0
  length 1.000000
  angle deg
:documentation
     Acclaim Skeleton File
:root
   axis xyz
   order TX TY TZ RX RY RZ
   position 0.000000 0.000000 0.000000
   orientation 0 0 0
:bonedata
   begin
      id 1
      name Spine_dum
      direction 0.000000 1.000000 0.000000
      length 4.885285
      axis 0.0 0.0 0.0 xyz
   end
   begin
      id 2
      name LeftUpLeg_dum
      direction 1.000000 0.000000 0.000000
      length 2.672193
      axis 0.0 0.0 0.0 xyz
   end
   begin
      id 3
      name RightUpLeg_dum
      direction -1.000000 0.000000 0.000000
      length 2.672193
      axis 0.0 0.0 0.0 xyz
   end
   begin
      id 4
      name Spine
      direction 0.000000 1.000000 0.000000
      length 0.000000
      axis 0.0 0.0 0.0 xyz
      dof rx ry rz
   end
   begin
      id 5
      name Spine_dum1
      direction 0.000000 1.000000 0.000000
      length 16.494159
      axis 0.0 0.0 0.0 xyz
   end
   begin
      id 6
      name Spine_dum2
      direction 0.000000 1.000000 0.000000
      length 10.663448
      axis 0.0 0.0 0.0 xyz
   end
   begin
      id 7
      name Spine_dum3
      direction 0.000000 1.000000 0.000000
      length 10.663448
      axis 0.0 0.0 0.0 xyz
   end
   begin
      id 8
      name Head
      direction 0.000000 1.000000 0.000000
      length 4.527550
      axis 0.0 0.0 0.0 xyz
      dof rx ry rz
   end
   begin
      id 9
      name LeftShoulder
      direction 1.000000 0.000000 0.000000
      length 7.531907
      axis 0.0 0.0 -90.0 xyz
      dof rx ry rz
   end
   begin
      id 10
      name LeftArm
      direction 1.000000 0.000000 0.000000
      length 10.229199
      axis 0.0 0.0 -90.0 xyz
      dof rx ry rz
   end
   begin
      id 11
      name LeftForeArm
      direction 1.000000 0.000000 0.000000
      length 8.673495
      axis 0.0 0.0 -90.0 xyz
      dof ry rz rx
   end
   begin
      id 12
      name LeftHand
      direction 0.000000 0.000000 0.000000
      length 0.000000
      axis 0.0 0.0 -90.0 xyz
      dof rx ry rz
   end
   begin
      id 13
      name LeftHand_dum1
      direction 0.000000 0.000000 0.000000
      length 0.000000
      axis 0.0 0.0 -90.0 xyz
   end
   begin
      id 14
      name LeftHand_dum2
      direction 1.000000 0.000000 0.000000
      length 3.937000
      axis 0.0 0.0 -90.0 xyz
   end
   begin
      id 15
      name LeftHandThumb1
      direction 0.000000 0.000000 1.000000
      length 3.937000
      axis 0.0 0.0 -90.0 xyz
      dof rx rz ry
   end
   begin
      id 16
      name RightShoulder
      direction -1.000000 0.000000 0.000000
      length 7.531907
      axis 0.0 0.0 90.0 xyz
      dof rx ry rz
   end
   begin
      id 17
      name RightArm
      direction -1.000000 0.000000 0.000000
      length 10.229199
      axis 0.0 0.0 90.0 xyz
      dof rx ry rz
   end
   begin
      id 18
      name RightForeArm
      direction -1.000000 0.000000 0.000000
      length 8.673495
      axis 0.0 0.0 90.0 xyz
      dof ry rz rx
   end
   begin
      id 19
      name RightHand
      direction 0.000000 0.000000 0.000000
      length 0.000000
      axis 0.0 0.0 90.0 xyz
      dof rx ry rz
   end
   begin
      id 20
      name RightHand_dum1
      direction 0.000000 0.000000 0.000000
      length 0.000000
      axis 0.0 0.0 90.0 xyz
   end
   begin
      id 21
      name RightHand_dum2
      direction -1.000000 0.000000 0.000000
      length 3.937000
      axis 0.0 0.0 90.0 xyz
   end
   begin
      id 22
      name RightHandThumb1
      direction 0.000000 0.000000 1.000000
      length 3.937000
      axis 0.0 0.0 90.0 xyz
      dof rx rz ry
   end
   begin
      id 23
      name LeftUpLeg
      direction 0.000000 -1.000000 0.000000
      length 16.263388
      axis 0.0 0.0 0.0 xyz
      dof rx ry rz
   end
   begin
      id 24
      name LeftLeg
      direction 0.000000 -1.000000 0.000000
      length 14.328163
      axis 0.0 0.0 0.0 xyz
      dof rx ry rz
   end
   begin
      id 25
      name LeftFoot
      direction 0.000000 -0.258819 0.965926
      length 5.031290
      axis 15.0 0.0 0.0 xyz
      dof rx ry rz
   end
   begin
      id 26
      name LeftToeBase
      direction 0.000000 0.000000 1.000000
      length 2.952750
      axis 0.0 0.0 0.0 xyz
      dof rx ry rz
   end
   begin
      id 27
      name RightUpLeg
      direction 0.000000 -1.000000 0.000000
      length 16.263388
      axis 0.0 0.0 0.0 xyz
      dof rx ry rz
   end
   begin
      id 28
      name RightLeg
      direction 0.000000 -1.000000 0.000000
      length 14.328163
      axis 0.0 0.0 0.0 xyz
      dof rx ry rz
   end
   begin
      id 29
      name RightFoot
      direction 0.000000 -0.258819 0.965926
      length 5.031290
      axis 15.0 0.0 0.0 xyz
      dof rx ry rz
   end
   begin
      id 30
      name RightToeBase
      direction 0.000000 0.000000 1.000000
      length 2.952750
      axis 0.0 0.0 0.0 xyz
      dof rx ry rz
   end
:hierarchy
   begin
      root Spine_dum LeftUpLeg_dum RightUpLeg_dum
      Spine_dum Spine
      LeftUpLeg_dum LeftUpLeg
      RightUpLeg_dum RightUpLeg
      Spine Spine_dum1 Spine_dum2 Spine_dum3
      Spine_dum1 Head
      Spine_dum2 LeftShoulder
      Spine_dum3 RightShoulder
      LeftShoulder LeftArm
      LeftArm LeftForeArm
      LeftForeArm LeftHand
      LeftHand LeftHand_dum1 LeftHand_dum2
      LeftHand_dum1 LeftHandThumb1
      RightShoulder RightArm
      RightArm RightForeArm
      RightForeArm RightHand
      RightHand RightHand_dum1 RightHand_dum2
      RightHand_dum1 RightHandThumb1
      LeftUpLeg LeftLeg
      LeftLeg LeftFoot
      LeftFoot LeftToeBase
      RightUpLeg RightLeg
      RightLeg RightFoot
      RightFoot RightToeBase
   end

# File created by Blade
# Date/Time:  Tue Apr 07 20:17:56 2015
# Frame Rate: 120.000 fps
#------------------------------------------------------
:FULLY-SPECIFIED
:DEGREES
300
root 4.216290 32.822917 -8.120424 11.979234 -0.290351 -3.172639
Spine -10.243765 -4.705027 -3.198534
Head 11.732018 -5.081537 9.651372
LeftShoulder -19.481071 47.741849 11.328814
LeftArm 48.138281 -9.184626 -87.311106
LeftForeArm -3.978074 -0.000000 18.352276
LeftHand 7.333353 -0.000000 -0.073689
LeftHandThumb1 -26.253704 0.000000 33.147579
RightShoulder -6.048836 -6.806605 -14.927159
RightArm 14.613817 -0.687380 86.281639
RightForeArm 1.315963 -0.000000 28.022911
RightHand 4.802858 0.000000 1.306411
RightHandThumb1 -24.326973 -0.000000 -32.862282
LeftUpLeg -10.123986 -1.401313 -0.949247
LeftLeg 3.580342 -0.000000 -0.000000
LeftFoot -8.622259 9.592910 -13.235394
LeftToeBase -6.015411 -0.000000 0.000000
RightUpLeg -24.761219 -6.784782 0.972980
RightLeg 30.216251 -0.000000 -0.000000
RightFoot -7.427290 1.841480 12.220684
RightToeBase -7.318633 -0.000000 0.000000
301
root 4.239508 32.819668 -8.148131 11.927551 -0.404046 -3.262131
Spine -10.098527 -4.674138 -3.171895
Head 11.616300 -5.019054 9.674649
LeftShoulder -19.489532 47.761760 11.298257
LeftArm 48.181668 -9.005880 -87.281958
LeftForeArm -4.010482 -0.000000 18.143658
LeftHand 7.294903 0.000000 -0.155515
LeftHandThumb1 -26.253704 0.000000 33.147579
RightShoulder -6.026080 -6.753497 -14.997069
RightArm 14.688109 -0.634349 86.548981
RightForeArm 1.478529 0.000000 28.277402
RightHand 4.841258 0.000000 1.144293
RightHandThumb1 -24.326973 -0.000000 -32.862282
LeftUpLeg -10.289986 -0.963221 -0.990324
LeftLeg 3.937979 -0.000000 -0.000000
LeftFoot -8.686891 9.340043 -12.951974
LeftToeBase -6.151192 -0.000000 0.000000
RightUpLeg -25.637947 -7.316232 1.083827
RightLeg 31.788027 -0.000000 -0.000000
RightFoot -6.604584 2.582193 12.315809
RightToeBase -8.096705 -0.000000 0.000000
302
root 4.262256 32.817410 -8.177820 11.865964 -0.536517 -3.349463
Spine -9.941902 -4.624509 -3.152929
Head 11.505646 -4.970362 9.706199
LeftShoulder -19.407522 47.744676 11.348477
LeftArm 48.123051 -8.882205 -87.310182
LeftForeArm -4.040812 -0.000000 18.015540
LeftHand 7.373018 0.000000 -0.112934
LeftHandThumb1 -26.253704 0.000000 33.147579
RightShoulder -5.992184 -6.703264 -15.064636
RightArm 14.782114 -0.585622 86.835673
RightForeArm 1.757809 0.000000 28.526650
RightHand 4.863040 -0.000000 0.842168
RightHandThumb1 -24.326973 -0.000000 -32.862282
LeftUpLeg -10.375200 -0.777455 -0.988602
LeftLeg 4.139244 -0.000000 -0.000000
LeftFoot -8.729327 9.326271 -12.760354
LeftToeBase -6.346095 -0.000000 0.000000
RightUpLeg -26.524961 -7.942764 1.193992
RightLeg 33.348370 -0.000000 -0.000000
RightFoot -5.556329 3.514183 12.837333
RightToeBase -9.385205 -0.000000 0.000000
303
root 4.285548 32.815247 -8.212045 11.821982 -0.685978 -3.436996
Spine -9.790109 -4.580812 -3.134833
Head 11.376725 -4.872870 9.750227
LeftShoulder -19.364686 47.733453 11.358865
LeftArm 48.026965 -8.668426 -87.192630
LeftForeArm -4.280161 -0.000000 18.000545
LeftHand 7.372157 -0.000000 -0.225219
LeftHandThumb1 -26.253704 0.000000 33.147579
RightShoulder -5.944881 -6.606591 -15.119077
RightArm 14.884465 -0.579158 87.102676
RightForeArm 2.066274 -0.000000 28.741646
RightHand 4.997946 -0.000000 0.598277
RightHandThumb1 -24.326973 -0.000000 -32.862282
LeftUpLeg -10.425129 -0.837615 -0.953885
LeftLeg 4.221869 -0.000000 -0.000000
LeftFoot -8.768620 9.581846 -12.573713
LeftToeBase -6.464656 -0.000000 0.000000
RightUpLeg -27.494977 -8.639748 1.317334
RightLeg 34.972673 -0.000000 -0.000000
RightFoot -4.462976 4.478923 13.237402
RightToeBase -9.725153 -0.000000 0.000000
304
root 4.312257 32.811827 -8.241689 11.764960 -0.878458 -3.534142
Spine -9.641208 -4.490150 -3.100460
Head 11.257705 -4.827136 9.773142
LeftShoulder -19.320503 47.705323 11.377291
LeftArm 47.911333 -8.563932 -87.242652
LeftForeArm -4.117810 -0.000000 18.031184
LeftHand 7.261053 0.000000 -0.091492
LeftHandThumb1 -26.253704 0.000000 33.147579
RightShoulder -5.900472 -6.569986 -15.188657
RightArm 15.055436 -0.596344 87.381575
RightForeArm 2.401602 -0.000000 28.914673
RightHand 5.055643 -0.000000 0.368018
RightHandThumb1 -24.326973 -0.000000 -32.862282
LeftUpLeg -10.444291 -0.837808 -0.930095
LeftLeg 4.299961 -0.000000 -0.000000
LeftFoot -8.880607 9.872455 -12.281841
LeftToeBase -6.389999 -0.000000 0.000000
RightUpLeg -28.485694 -9.419179 1.460397
RightLeg 36.620286 -0.000000 -0.000000
RightFoot -3.162779 5.443735 13.411330
RightToeBase -10.570215 -0.000000 0.000000
